<?xml version="1.0" standalone="no"?><!DOCTYPE svg PUBLIC "-//W3C//DTD SVG 1.1//EN" "http://www.w3.org/Graphics/SVG/1.1/DTD/svg11.dtd"><svg t="1693992551808" class="icon" viewBox="0 0 1024 1024" version="1.1" xmlns="http://www.w3.org/2000/svg" p-id="6629" xmlns:xlink="http://www.w3.org/1999/xlink" width="64" height="64"><path d="M178.74 919.5c-72.65 0-114.25-41.6-114.25-114.25v-199.8c0-12.31 9.96-22.26 22.27-22.26 33.4 0 67.38-4.69 67.38 26.95v189.84c0 15.82 12.89 28.12 28.12 28.12H842c15.82 0 28.71-12.89 28.71-28.71V604.87c0-12.3 9.96-22.26 22.26-22.26 33.4 0 67.38-4.69 67.38 26.95v200.39c0 72.65-35.74 108.39-108.39 108.39l-673.22 1.16z m0 0" fill="#0077F1" p-id="6630"></path><path d="M512.13 677.52c-24.61 0-44.53-19.92-44.53-44.53V131.45c0-24.61 19.92-26.95 44.53-26.95s44.53 2.34 44.53 26.95v501.54c0 24.61-19.92 44.53-44.53 44.53z m0 0" fill="#0077F1" p-id="6631"></path><path d="M509.79 693.93c-11.72 0-23.44-4.69-31.64-12.89L273.08 475.97c-21.67-21.68-20.51-42.77 0-63.28 20.51-20.51 42.77-20.51 63.28 0l173.43 173.43 183.39-183.39c15.24-15.24 37.5-11.13 55.08 6.44 17.58 17.58 25.2 39.84 8.21 56.83L541.43 680.45c-8.21 8.2-19.92 12.89-31.64 12.89v0.59z m0 0" fill="#0077F1" p-id="6632"></path></svg>