<?xml version="1.0" standalone="no"?><!DOCTYPE svg PUBLIC "-//W3C//DTD SVG 1.1//EN" "http://www.w3.org/Graphics/SVG/1.1/DTD/svg11.dtd"><svg t="1693991094830" class="icon" viewBox="0 0 1025 1024" version="1.1" xmlns="http://www.w3.org/2000/svg" p-id="1336" xmlns:xlink="http://www.w3.org/1999/xlink" width="64.0625" height="64"><path d="M907.121732 55.362549l65.182998 65.182999A182.239379 182.239379 0 0 1 1025.543201 248.863912a181.215562 181.215562 0 0 1-52.897198 128.318364l-2.047634 2.047634-142.310526 142.310526a182.239379 182.239379 0 0 1-256.978001 0l-1.706361-2.047633-3.753995-3.753995-48.119387 48.119387 5.801629 5.460356a182.580651 182.580651 0 0 1 0 257.319273l-2.047634 1.706361L377.125934 970.995984a182.239379 182.239379 0 0 1-256.978001 0l-68.254449-68.254449a181.898107 181.898107 0 0 1 0-256.636729l144.35816-144.016888a181.898107 181.898107 0 0 1 256.636729 0l5.801628 5.460356 48.119386-48.119386-5.801628-5.801629a182.580651 182.580651 0 0 1-53.23847-128.318364 178.826657 178.826657 0 0 1 52.897198-128.318364l143.334343-143.675616a181.898107 181.898107 0 0 1 257.319273 0v2.047634z m9.555622 120.469102l-64.841726-65.182998-2.047634-2.047634a102.381674 102.381674 0 0 0-72.690988-30.031958 102.381674 102.381674 0 0 0-73.032261 30.031958l-144.358159 144.699432a102.381674 102.381674 0 0 0-30.031958 72.690989 102.381674 102.381674 0 0 0 30.031958 72.690988l5.801628 5.460356 68.254449-68.254449a39.246308 39.246308 0 1 1 55.627376 55.627376l-68.254449 68.254449 3.753994 3.753995 2.047634 1.706361a102.381674 102.381674 0 0 0 145.723249 0l142.310526-142.310527 2.047634-2.047633a102.381674 102.381674 0 0 0 30.031957-72.690988 102.381674 102.381674 0 0 0-30.37323-72.690989zM467.563079 625.287199l-5.460356-5.460356-68.254449 68.254449a39.246308 39.246308 0 0 1-55.627376-55.627376l68.254449-68.254449-5.460356-5.801628a102.381674 102.381674 0 0 0-145.723249 0l-144.699432 144.016887a102.381674 102.381674 0 0 0 0 145.723249l68.254449 68.254449a102.381674 102.381674 0 0 0 145.381977 0l142.310527-142.310526 1.706361-2.047633a102.381674 102.381674 0 0 0 0-145.723249z" fill="#3C93D0" p-id="1337"></path></svg>