<?xml version="1.0" standalone="no"?><!DOCTYPE svg PUBLIC "-//W3C//DTD SVG 1.1//EN" "http://www.w3.org/Graphics/SVG/1.1/DTD/svg11.dtd"><svg t="1693991089544" class="icon" viewBox="0 0 1024 1024" version="1.1" xmlns="http://www.w3.org/2000/svg" p-id="1185" xmlns:xlink="http://www.w3.org/1999/xlink" width="64" height="64"><path d="M476.886137 675.111363c4.559982 9.047965 6.989973 19.157925 6.989973 29.695884 0 17.615931-6.743974 34.057867-18.991926 46.307819l-163.379362 163.379362c-12.247952 12.247952-28.695888 18.991926-46.307819 18.991926s-34.059867-6.743974-46.307819-18.991926l-99.379612-99.379612c-12.247952-12.249952-18.991926-28.695888-18.991926-46.307819s6.743974-34.059867 18.991926-46.307819L272.888934 559.117816c12.247952-12.245952 28.695888-18.991926 46.307819-18.991926 10.537959 0 20.643919 2.429991 29.695884 6.987973l65.337745-65.335745c-27.869891-21.409916-61.43976-32.159874-95.033629-32.159874-39.985844 0-79.971688 15.165941-110.307569 45.501822L45.509822 658.501428c-60.669763 60.669763-60.669763 159.949375 0 220.617138l99.379612 99.381612c30.333882 30.331882 70.319725 45.499822 110.305569 45.499822 39.987844 0 79.973688-15.167941 110.307569-45.501822l163.379362-163.379362c55.819782-55.819782 60.237765-144.297436 13.343948-205.345198l-65.339745 65.337745z m501.606041-530.227929l-99.379612-99.381612C848.778684 15.165941 808.792841 0 768.804997 0c-39.985844 0-79.969688 15.165941-110.305569 45.501822L495.118066 208.883184c-55.819782 55.819782-60.237765 144.297436-13.341948 205.341198l65.337745-65.339745c-4.557982-9.049965-6.987973-19.159925-6.987973-29.693884 0-17.615931 6.743974-34.059867 18.991926-46.307819l163.381362-163.381362c12.245952-12.247952 28.693888-18.993926 46.305819-18.993926 17.615931 0 34.059867 6.745974 46.307819 18.993926l99.379612 99.381612c12.247952 12.247952 18.991926 28.693888 18.991926 46.307819s-6.743974 34.059867-18.991926 46.307819l-163.379362 163.381362c-12.247952 12.247952-28.693888 18.991926-46.307819 18.991926-10.535959 0-20.643919-2.429991-29.695884-6.989973l-65.337745 65.337745c27.871891 21.409916 61.43976 32.159874 95.033629 32.159874 39.987844 0 79.973688-15.167941 110.307569-45.503822l163.379362-163.379362c60.671763-60.665763 60.671763-159.943375 0-220.613138z m-745.12509 133.739478L41.373838 86.629662 86.629662 41.373838l191.99325 191.99325zM383.9985 0h63.99975v191.99925h-63.99975zM0 383.9985h191.99925v63.99975H0z m790.628912 361.374588l191.99525 191.99525-45.255824 45.255824-191.99525-191.99525zM575.99775 831.99675h63.99975v191.99925h-63.99975z m255.999-255.999h191.99925v63.99975H831.99675z" p-id="1186"></path></svg>